<?xml version="1.0" encoding="UTF-8" standalone="no"?>
<!DOCTYPE svg PUBLIC "-//W3C//DTD SVG 1.1//EN"
 "http://www.w3.org/Graphics/SVG/1.1/DTD/svg11.dtd">
<!-- Generated by graphviz version 2.47.0 (20210316.0004)
 -->
<!-- Title: dependencies Pages: 1 -->
<svg width="504pt" height="211pt"
 viewBox="0.00 0.00 504.00 211.00" xmlns="http://www.w3.org/2000/svg" xmlns:xlink="http://www.w3.org/1999/xlink">
<g id="graph0" class="graph" transform="scale(1 1) rotate(0) translate(4 207)">
<title>dependencies</title>
<polygon fill="white" stroke="transparent" points="-4,4 -4,-207 500,-207 500,4 -4,4"/>
<text text-anchor="start" x="227.01" y="-42.4" font-family="Times-12" font-weight="bold" font-size="14.00">Legend</text>
<polygon fill="#ffffb3" stroke="transparent" points="14,-10 14,-30 34,-30 34,-10 14,-10"/>
<text text-anchor="start" x="37.63" y="-15.4" font-family="Times-12" font-size="14.00"> &#160;Declarations</text>
<polygon fill="#8dd3c7" stroke="transparent" points="127,-10 127,-30 147,-30 147,-10 127,-10"/>
<text text-anchor="start" x="150.73" y="-15.4" font-family="Times-12" font-size="14.00"> &#160;Module</text>
<polygon fill="#80b1d3" stroke="transparent" points="213,-10 213,-30 233,-30 233,-10 213,-10"/>
<text text-anchor="start" x="236.78" y="-15.4" font-family="Times-12" font-size="14.00"> &#160;Bootstrap</text>
<polygon fill="#fdb462" stroke="transparent" points="310,-10 310,-30 330,-30 330,-10 310,-10"/>
<text text-anchor="start" x="333.67" y="-15.4" font-family="Times-12" font-size="14.00"> &#160;Providers</text>
<polygon fill="#fb8072" stroke="transparent" points="406,-10 406,-30 426,-30 426,-10 406,-10"/>
<text text-anchor="start" x="429.73" y="-15.4" font-family="Times-12" font-size="14.00"> &#160;Exports</text>
<g id="clust1" class="cluster">
<title>cluster_AppModule</title>
<polygon fill="none" stroke="black" stroke-dasharray="1,5" points="38,-70 38,-195 458,-195 458,-70 38,-70"/>
</g>
<g id="clust3" class="cluster">
<title>cluster_AppModule_imports</title>
<polygon fill="none" stroke="black" points="46,-78 46,-130 450,-130 450,-78 46,-78"/>
</g>
<!-- EncuestasModule -->
<g id="node1" class="node">
<title>EncuestasModule</title>
<polygon fill="#8dd3c7" stroke="black" points="441.53,-122 438.53,-126 417.53,-126 414.53,-122 326.47,-122 326.47,-86 441.53,-86 441.53,-122"/>
<text text-anchor="middle" x="384" y="-99.8" font-family="Times,serif" font-size="14.00">EncuestasModule</text>
</g>
<!-- AppModule -->
<g id="node4" class="node">
<title>AppModule</title>
<polygon fill="#8dd3c7" stroke="black" points="292.66,-187 289.66,-191 268.66,-191 265.66,-187 209.34,-187 209.34,-151 292.66,-151 292.66,-187"/>
<text text-anchor="middle" x="251" y="-164.8" font-family="Times,serif" font-size="14.00">AppModule</text>
</g>
<!-- EncuestasModule&#45;&gt;AppModule -->
<g id="edge1" class="edge">
<title>EncuestasModule&#45;&gt;AppModule</title>
<path fill="none" stroke="black" d="M384,-122.11C384,-141.34 384,-169 384,-169 384,-169 302.72,-169 302.72,-169"/>
<polygon fill="black" stroke="black" points="302.72,-165.5 292.72,-169 302.72,-172.5 302.72,-165.5"/>
</g>
<!-- PreguntasModule -->
<g id="node2" class="node">
<title>PreguntasModule</title>
<polygon fill="#8dd3c7" stroke="black" points="308.26,-122 305.26,-126 284.26,-126 281.26,-122 193.74,-122 193.74,-86 308.26,-86 308.26,-122"/>
<text text-anchor="middle" x="251" y="-99.8" font-family="Times,serif" font-size="14.00">PreguntasModule</text>
</g>
<!-- PreguntasModule&#45;&gt;AppModule -->
<g id="edge2" class="edge">
<title>PreguntasModule&#45;&gt;AppModule</title>
<path fill="none" stroke="black" d="M251,-122.11C251,-122.11 251,-140.99 251,-140.99"/>
<polygon fill="black" stroke="black" points="247.5,-140.99 251,-150.99 254.5,-140.99 247.5,-140.99"/>
</g>
<!-- RespuestasModule -->
<g id="node3" class="node">
<title>RespuestasModule</title>
<polygon fill="#8dd3c7" stroke="black" points="175.75,-122 172.75,-126 151.75,-126 148.75,-122 54.25,-122 54.25,-86 175.75,-86 175.75,-122"/>
<text text-anchor="middle" x="115" y="-99.8" font-family="Times,serif" font-size="14.00">RespuestasModule</text>
</g>
<!-- RespuestasModule&#45;&gt;AppModule -->
<g id="edge3" class="edge">
<title>RespuestasModule&#45;&gt;AppModule</title>
<path fill="none" stroke="black" d="M115,-122.11C115,-141.34 115,-169 115,-169 115,-169 199.09,-169 199.09,-169"/>
<polygon fill="black" stroke="black" points="199.09,-172.5 209.09,-169 199.09,-165.5 199.09,-172.5"/>
</g>
</g>
</svg>
