<?xml version="1.0" encoding="UTF-8" standalone="no"?>
<!DOCTYPE svg PUBLIC "-//W3C//DTD SVG 1.1//EN"
 "http://www.w3.org/Graphics/SVG/1.1/DTD/svg11.dtd">
<!-- Generated by graphviz version 2.47.0 (20210316.0004)
 -->
<!-- Title: dependencies Pages: 1 -->
<svg width="575pt" height="211pt"
 viewBox="0.00 0.00 575.00 211.00" xmlns="http://www.w3.org/2000/svg" xmlns:xlink="http://www.w3.org/1999/xlink">
<g id="graph0" class="graph" transform="scale(1 1) rotate(0) translate(4 207)">
<title>dependencies</title>
<polygon fill="white" stroke="transparent" points="-4,4 -4,-207 571,-207 571,4 -4,4"/>
<text text-anchor="start" x="262.51" y="-42.4" font-family="Times-12" font-weight="bold" font-size="14.00">Legend</text>
<polygon fill="#ffffb3" stroke="transparent" points="49.5,-10 49.5,-30 69.5,-30 69.5,-10 49.5,-10"/>
<text text-anchor="start" x="73.13" y="-15.4" font-family="Times-12" font-size="14.00"> &#160;Declarations</text>
<polygon fill="#8dd3c7" stroke="transparent" points="162.5,-10 162.5,-30 182.5,-30 182.5,-10 162.5,-10"/>
<text text-anchor="start" x="186.23" y="-15.4" font-family="Times-12" font-size="14.00"> &#160;Module</text>
<polygon fill="#80b1d3" stroke="transparent" points="248.5,-10 248.5,-30 268.5,-30 268.5,-10 248.5,-10"/>
<text text-anchor="start" x="272.28" y="-15.4" font-family="Times-12" font-size="14.00"> &#160;Bootstrap</text>
<polygon fill="#fdb462" stroke="transparent" points="345.5,-10 345.5,-30 365.5,-30 365.5,-10 345.5,-10"/>
<text text-anchor="start" x="369.17" y="-15.4" font-family="Times-12" font-size="14.00"> &#160;Providers</text>
<polygon fill="#fb8072" stroke="transparent" points="441.5,-10 441.5,-30 461.5,-30 461.5,-10 441.5,-10"/>
<text text-anchor="start" x="465.23" y="-15.4" font-family="Times-12" font-size="14.00"> &#160;Exports</text>
<g id="clust1" class="cluster">
<title>cluster_AppModule</title>
<polygon fill="none" stroke="black" stroke-dasharray="1,5" points="8,-70 8,-195 559,-195 559,-70 8,-70"/>
</g>
<g id="clust3" class="cluster">
<title>cluster_AppModule_imports</title>
<polygon fill="none" stroke="black" points="16,-78 16,-130 551,-130 551,-78 16,-78"/>
</g>
<!-- EncuestasModule -->
<g id="node1" class="node">
<title>EncuestasModule</title>
<polygon fill="#8dd3c7" stroke="black" points="542.53,-122 539.53,-126 518.53,-126 515.53,-122 427.47,-122 427.47,-86 542.53,-86 542.53,-122"/>
<text text-anchor="middle" x="485" y="-99.8" font-family="Times,serif" font-size="14.00">EncuestasModule</text>
</g>
<!-- AppModule -->
<g id="node5" class="node">
<title>AppModule</title>
<polygon fill="#8dd3c7" stroke="black" points="328.66,-187 325.66,-191 304.66,-191 301.66,-187 245.34,-187 245.34,-151 328.66,-151 328.66,-187"/>
<text text-anchor="middle" x="287" y="-164.8" font-family="Times,serif" font-size="14.00">AppModule</text>
</g>
<!-- EncuestasModule&#45;&gt;AppModule -->
<g id="edge1" class="edge">
<title>EncuestasModule&#45;&gt;AppModule</title>
<path fill="none" stroke="black" d="M485,-122.11C485,-141.34 485,-169 485,-169 485,-169 338.99,-169 338.99,-169"/>
<polygon fill="black" stroke="black" points="338.99,-165.5 328.99,-169 338.99,-172.5 338.99,-165.5"/>
</g>
<!-- OpcionesModule -->
<g id="node2" class="node">
<title>OpcionesModule</title>
<polygon fill="#8dd3c7" stroke="black" points="409.42,-122 406.42,-126 385.42,-126 382.42,-122 296.58,-122 296.58,-86 409.42,-86 409.42,-122"/>
<text text-anchor="middle" x="353" y="-99.8" font-family="Times,serif" font-size="14.00">OpcionesModule</text>
</g>
<!-- OpcionesModule&#45;&gt;AppModule -->
<g id="edge2" class="edge">
<title>OpcionesModule&#45;&gt;AppModule</title>
<path fill="none" stroke="black" d="M312.81,-122.11C312.81,-122.11 312.81,-140.99 312.81,-140.99"/>
<polygon fill="black" stroke="black" points="309.31,-140.99 312.81,-150.99 316.31,-140.99 309.31,-140.99"/>
</g>
<!-- PreguntasModule -->
<g id="node3" class="node">
<title>PreguntasModule</title>
<polygon fill="#8dd3c7" stroke="black" points="278.26,-122 275.26,-126 254.26,-126 251.26,-122 163.74,-122 163.74,-86 278.26,-86 278.26,-122"/>
<text text-anchor="middle" x="221" y="-99.8" font-family="Times,serif" font-size="14.00">PreguntasModule</text>
</g>
<!-- PreguntasModule&#45;&gt;AppModule -->
<g id="edge3" class="edge">
<title>PreguntasModule&#45;&gt;AppModule</title>
<path fill="none" stroke="black" d="M261.78,-122.11C261.78,-122.11 261.78,-140.99 261.78,-140.99"/>
<polygon fill="black" stroke="black" points="258.28,-140.99 261.78,-150.99 265.28,-140.99 258.28,-140.99"/>
</g>
<!-- RespuestasModule -->
<g id="node4" class="node">
<title>RespuestasModule</title>
<polygon fill="#8dd3c7" stroke="black" points="145.75,-122 142.75,-126 121.75,-126 118.75,-122 24.25,-122 24.25,-86 145.75,-86 145.75,-122"/>
<text text-anchor="middle" x="85" y="-99.8" font-family="Times,serif" font-size="14.00">RespuestasModule</text>
</g>
<!-- RespuestasModule&#45;&gt;AppModule -->
<g id="edge4" class="edge">
<title>RespuestasModule&#45;&gt;AppModule</title>
<path fill="none" stroke="black" d="M85,-122.11C85,-141.34 85,-169 85,-169 85,-169 235.15,-169 235.15,-169"/>
<polygon fill="black" stroke="black" points="235.15,-172.5 245.15,-169 235.15,-165.5 235.15,-172.5"/>
</g>
</g>
</svg>
