<?xml version="1.0" encoding="UTF-8" standalone="no"?>
<!DOCTYPE svg PUBLIC "-//W3C//DTD SVG 1.1//EN"
 "http://www.w3.org/Graphics/SVG/1.1/DTD/svg11.dtd">
<!-- Generated by graphviz version 2.47.0 (20210316.0004)
 -->
<!-- Title: dependencies Pages: 1 -->
<svg width="504pt" height="211pt"
 viewBox="0.00 0.00 504.00 211.00" xmlns="http://www.w3.org/2000/svg" xmlns:xlink="http://www.w3.org/1999/xlink">
<g id="graph0" class="graph" transform="scale(1 1) rotate(0) translate(4 207)">
<title>dependencies</title>
<polygon fill="white" stroke="transparent" points="-4,4 -4,-207 500,-207 500,4 -4,4"/>
<text text-anchor="start" x="227.01" y="-42.4" font-family="Times-12" font-weight="bold" font-size="14.00">Legend</text>
<polygon fill="#ffffb3" stroke="transparent" points="14,-10 14,-30 34,-30 34,-10 14,-10"/>
<text text-anchor="start" x="37.63" y="-15.4" font-family="Times-12" font-size="14.00"> &#160;Declarations</text>
<polygon fill="#8dd3c7" stroke="transparent" points="127,-10 127,-30 147,-30 147,-10 127,-10"/>
<text text-anchor="start" x="150.73" y="-15.4" font-family="Times-12" font-size="14.00"> &#160;Module</text>
<polygon fill="#80b1d3" stroke="transparent" points="213,-10 213,-30 233,-30 233,-10 213,-10"/>
<text text-anchor="start" x="236.78" y="-15.4" font-family="Times-12" font-size="14.00"> &#160;Bootstrap</text>
<polygon fill="#fdb462" stroke="transparent" points="310,-10 310,-30 330,-30 330,-10 310,-10"/>
<text text-anchor="start" x="333.67" y="-15.4" font-family="Times-12" font-size="14.00"> &#160;Providers</text>
<polygon fill="#fb8072" stroke="transparent" points="406,-10 406,-30 426,-30 426,-10 406,-10"/>
<text text-anchor="start" x="429.73" y="-15.4" font-family="Times-12" font-size="14.00"> &#160;Exports</text>
<g id="clust1" class="cluster">
<title>cluster_EncuestasModule</title>
<polygon fill="none" stroke="black" stroke-dasharray="1,5" points="80,-70 80,-195 416,-195 416,-70 80,-70"/>
</g>
<g id="clust3" class="cluster">
<title>cluster_EncuestasModule_imports</title>
<polygon fill="none" stroke="black" points="270,-78 270,-130 408,-130 408,-78 270,-78"/>
</g>
<g id="clust6" class="cluster">
<title>cluster_EncuestasModule_providers</title>
<polygon fill="none" stroke="black" points="88,-78 88,-130 262,-130 262,-78 88,-78"/>
</g>
<!-- RespuestasModule -->
<g id="node1" class="node">
<title>RespuestasModule</title>
<polygon fill="#8dd3c7" stroke="black" points="399.75,-122 396.75,-126 375.75,-126 372.75,-122 278.25,-122 278.25,-86 399.75,-86 399.75,-122"/>
<text text-anchor="middle" x="339" y="-99.8" font-family="Times,serif" font-size="14.00">RespuestasModule</text>
</g>
<!-- EncuestasModule -->
<g id="node2" class="node">
<title>EncuestasModule</title>
<polygon fill="#8dd3c7" stroke="black" points="314.53,-187 311.53,-191 290.53,-191 287.53,-187 199.47,-187 199.47,-151 314.53,-151 314.53,-187"/>
<text text-anchor="middle" x="257" y="-164.8" font-family="Times,serif" font-size="14.00">EncuestasModule</text>
</g>
<!-- RespuestasModule&#45;&gt;EncuestasModule -->
<g id="edge1" class="edge">
<title>RespuestasModule&#45;&gt;EncuestasModule</title>
<path fill="none" stroke="black" d="M296.44,-122.11C296.44,-122.11 296.44,-140.99 296.44,-140.99"/>
<polygon fill="black" stroke="black" points="292.94,-140.99 296.44,-150.99 299.94,-140.99 292.94,-140.99"/>
</g>
<!-- EncuestasService -->
<g id="node3" class="node">
<title>EncuestasService</title>
<ellipse fill="#fdb462" stroke="black" cx="175" cy="-104" rx="78.71" ry="18"/>
<text text-anchor="middle" x="175" y="-99.8" font-family="Times,serif" font-size="14.00">EncuestasService</text>
</g>
<!-- EncuestasService&#45;&gt;EncuestasModule -->
<g id="edge2" class="edge">
<title>EncuestasService&#45;&gt;EncuestasModule</title>
<path fill="none" stroke="black" d="M226.42,-117.78C226.42,-117.78 226.42,-140.55 226.42,-140.55"/>
<polygon fill="black" stroke="black" points="222.92,-140.55 226.42,-150.55 229.92,-140.55 222.92,-140.55"/>
</g>
</g>
</svg>
