<?xml version="1.0" encoding="UTF-8" standalone="no"?>
<!DOCTYPE svg PUBLIC "-//W3C//DTD SVG 1.1//EN"
 "http://www.w3.org/Graphics/SVG/1.1/DTD/svg11.dtd">
<!-- Generated by graphviz version 2.47.0 (20210316.0004)
 -->
<!-- Title: dependencies Pages: 1 -->
<svg width="851pt" height="298pt"
 viewBox="0.00 0.00 851.00 298.00" xmlns="http://www.w3.org/2000/svg" xmlns:xlink="http://www.w3.org/1999/xlink">
<g id="graph0" class="graph" transform="scale(1 1) rotate(0) translate(4 294)">
<title>dependencies</title>
<polygon fill="white" stroke="transparent" points="-4,4 -4,-294 847,-294 847,4 -4,4"/>
<text text-anchor="start" x="400.51" y="-42.4" font-family="Times-12" font-weight="bold" font-size="14.00">Legend</text>
<polygon fill="#ffffb3" stroke="transparent" points="187.5,-10 187.5,-30 207.5,-30 207.5,-10 187.5,-10"/>
<text text-anchor="start" x="211.13" y="-15.4" font-family="Times-12" font-size="14.00"> &#160;Declarations</text>
<polygon fill="#8dd3c7" stroke="transparent" points="300.5,-10 300.5,-30 320.5,-30 320.5,-10 300.5,-10"/>
<text text-anchor="start" x="324.23" y="-15.4" font-family="Times-12" font-size="14.00"> &#160;Module</text>
<polygon fill="#80b1d3" stroke="transparent" points="386.5,-10 386.5,-30 406.5,-30 406.5,-10 386.5,-10"/>
<text text-anchor="start" x="410.28" y="-15.4" font-family="Times-12" font-size="14.00"> &#160;Bootstrap</text>
<polygon fill="#fdb462" stroke="transparent" points="483.5,-10 483.5,-30 503.5,-30 503.5,-10 483.5,-10"/>
<text text-anchor="start" x="507.17" y="-15.4" font-family="Times-12" font-size="14.00"> &#160;Providers</text>
<polygon fill="#fb8072" stroke="transparent" points="579.5,-10 579.5,-30 599.5,-30 599.5,-10 579.5,-10"/>
<text text-anchor="start" x="603.23" y="-15.4" font-family="Times-12" font-size="14.00"> &#160;Exports</text>
<g id="clust1" class="cluster">
<title>cluster_AppModule</title>
<polygon fill="none" stroke="black" stroke-dasharray="1,5" points="61,-146 61,-274 481,-274 481,-146 61,-146"/>
</g>
<g id="clust3" class="cluster">
<title>cluster_AppModule_imports</title>
<polygon fill="none" stroke="black" points="69,-154 69,-206 473,-206 473,-154 69,-154"/>
</g>
<g id="clust7" class="cluster">
<title>cluster_EncuestasModule</title>
<polygon fill="none" stroke="black" stroke-dasharray="1,5" points="8,-70 8,-138 198,-138 198,-70 8,-70"/>
</g>
<g id="clust12" class="cluster">
<title>cluster_EncuestasModule_providers</title>
<polygon fill="none" stroke="black" points="16,-78 16,-130 190,-130 190,-78 16,-78"/>
</g>
<g id="clust13" class="cluster">
<title>cluster_PreguntasModule</title>
<polygon fill="none" stroke="black" stroke-dasharray="1,5" points="206,-70 206,-138 394,-138 394,-70 206,-70"/>
</g>
<g id="clust18" class="cluster">
<title>cluster_PreguntasModule_providers</title>
<polygon fill="none" stroke="black" points="214,-78 214,-130 386,-130 386,-78 214,-78"/>
</g>
<g id="clust19" class="cluster">
<title>cluster_RespuestasModule</title>
<polygon fill="none" stroke="black" stroke-dasharray="1,5" points="489,-214 489,-282 835,-282 835,-214 489,-214"/>
</g>
<g id="clust22" class="cluster">
<title>cluster_RespuestasModule_exports</title>
<polygon fill="none" stroke="black" points="687,-222 687,-274 827,-274 827,-222 687,-222"/>
</g>
<g id="clust24" class="cluster">
<title>cluster_RespuestasModule_providers</title>
<polygon fill="none" stroke="black" points="497,-222 497,-274 679,-274 679,-222 497,-222"/>
</g>
<!-- EncuestasModule -->
<g id="node1" class="node">
<title>EncuestasModule</title>
<polygon fill="#8dd3c7" stroke="black" points="192.53,-198 189.53,-202 168.53,-202 165.53,-198 77.47,-198 77.47,-162 192.53,-162 192.53,-198"/>
<text text-anchor="middle" x="135" y="-175.8" font-family="Times,serif" font-size="14.00">EncuestasModule</text>
</g>
<!-- AppModule -->
<g id="node4" class="node">
<title>AppModule</title>
<polygon fill="#8dd3c7" stroke="black" points="309.66,-266 306.66,-270 285.66,-270 282.66,-266 226.34,-266 226.34,-230 309.66,-230 309.66,-266"/>
<text text-anchor="middle" x="268" y="-243.8" font-family="Times,serif" font-size="14.00">AppModule</text>
</g>
<!-- EncuestasModule&#45;&gt;AppModule -->
<g id="edge1" class="edge">
<title>EncuestasModule&#45;&gt;AppModule</title>
<path fill="none" stroke="black" d="M135,-198.22C135,-218.37 135,-248 135,-248 135,-248 216.28,-248 216.28,-248"/>
<polygon fill="black" stroke="black" points="216.28,-251.5 226.28,-248 216.28,-244.5 216.28,-251.5"/>
</g>
<!-- PreguntasModule -->
<g id="node2" class="node">
<title>PreguntasModule</title>
<polygon fill="#8dd3c7" stroke="black" points="325.26,-198 322.26,-202 301.26,-202 298.26,-198 210.74,-198 210.74,-162 325.26,-162 325.26,-198"/>
<text text-anchor="middle" x="268" y="-175.8" font-family="Times,serif" font-size="14.00">PreguntasModule</text>
</g>
<!-- PreguntasModule&#45;&gt;AppModule -->
<g id="edge2" class="edge">
<title>PreguntasModule&#45;&gt;AppModule</title>
<path fill="none" stroke="black" d="M268,-198.22C268,-198.22 268,-219.73 268,-219.73"/>
<polygon fill="black" stroke="black" points="264.5,-219.73 268,-229.73 271.5,-219.73 264.5,-219.73"/>
</g>
<!-- RespuestasModule -->
<g id="node3" class="node">
<title>RespuestasModule</title>
<polygon fill="#8dd3c7" stroke="black" points="464.75,-198 461.75,-202 440.75,-202 437.75,-198 343.25,-198 343.25,-162 464.75,-162 464.75,-198"/>
<text text-anchor="middle" x="404" y="-175.8" font-family="Times,serif" font-size="14.00">RespuestasModule</text>
</g>
<!-- RespuestasModule&#45;&gt;AppModule -->
<g id="edge3" class="edge">
<title>RespuestasModule&#45;&gt;AppModule</title>
<path fill="none" stroke="black" d="M383.71,-198.29C383.71,-220.21 383.71,-254 383.71,-254 383.71,-254 319.77,-254 319.77,-254"/>
<polygon fill="black" stroke="black" points="319.77,-250.5 309.77,-254 319.77,-257.5 319.77,-250.5"/>
</g>
<!-- RespuestasService  -->
<g id="node7" class="node">
<title>RespuestasService </title>
<polygon fill="#fb8072" stroke="black" points="818.68,-266 695.32,-266 695.32,-230 818.68,-230 818.68,-266"/>
<text text-anchor="middle" x="757" y="-243.8" font-family="Times,serif" font-size="14.00">RespuestasService </text>
</g>
<!-- RespuestasModule&#45;&gt;RespuestasService  -->
<g id="edge6" class="edge">
<title>RespuestasModule&#45;&gt;RespuestasService </title>
<path fill="none" stroke="black" stroke-dasharray="5,2" d="M465.08,-180C566.12,-180 757,-180 757,-180 757,-180 757,-219.78 757,-219.78"/>
<polygon fill="black" stroke="black" points="753.5,-219.78 757,-229.78 760.5,-219.78 753.5,-219.78"/>
</g>
<!-- EncuestasService -->
<g id="node5" class="node">
<title>EncuestasService</title>
<ellipse fill="#fdb462" stroke="black" cx="103" cy="-104" rx="78.71" ry="18"/>
<text text-anchor="middle" x="103" y="-99.8" font-family="Times,serif" font-size="14.00">EncuestasService</text>
</g>
<!-- EncuestasService&#45;&gt;EncuestasModule -->
<g id="edge4" class="edge">
<title>EncuestasService&#45;&gt;EncuestasModule</title>
<path fill="none" stroke="black" d="M129.42,-121.25C129.42,-121.25 129.42,-151.76 129.42,-151.76"/>
<polygon fill="black" stroke="black" points="125.92,-151.76 129.42,-161.76 132.92,-151.76 125.92,-151.76"/>
</g>
<!-- PreguntasService -->
<g id="node6" class="node">
<title>PreguntasService</title>
<ellipse fill="#fdb462" stroke="black" cx="300" cy="-104" rx="78.15" ry="18"/>
<text text-anchor="middle" x="300" y="-99.8" font-family="Times,serif" font-size="14.00">PreguntasService</text>
</g>
<!-- PreguntasService&#45;&gt;PreguntasModule -->
<g id="edge5" class="edge">
<title>PreguntasService&#45;&gt;PreguntasModule</title>
<path fill="none" stroke="black" d="M273.65,-121.25C273.65,-121.25 273.65,-151.76 273.65,-151.76"/>
<polygon fill="black" stroke="black" points="270.15,-151.76 273.65,-161.76 277.15,-151.76 270.15,-151.76"/>
</g>
<!-- RespuestasService -->
<g id="node8" class="node">
<title>RespuestasService</title>
<ellipse fill="#fdb462" stroke="black" cx="588" cy="-248" rx="82.8" ry="18"/>
<text text-anchor="middle" x="588" y="-243.8" font-family="Times,serif" font-size="14.00">RespuestasService</text>
</g>
<!-- RespuestasService&#45;&gt;RespuestasModule -->
<g id="edge7" class="edge">
<title>RespuestasService&#45;&gt;RespuestasModule</title>
<path fill="none" stroke="black" d="M509.5,-242C467.49,-242 424.29,-242 424.29,-242 424.29,-242 424.29,-208.27 424.29,-208.27"/>
<polygon fill="black" stroke="black" points="427.79,-208.27 424.29,-198.27 420.79,-208.27 427.79,-208.27"/>
</g>
</g>
</svg>
